<svg width="124" height="16" viewBox="0 0 124 16" fill="none" xmlns="http://www.w3.org/2000/svg">
<path fill-rule="evenodd" clip-rule="evenodd" d="M93.8598 0.0270996C95.2232 0.0270996 96.5892 1.09016 97.0344 2.49073C97.4516 3.81291 97.2696 6.4958 95.3667 9.71421C93.9834 12.1978 91.2925 13.9385 89.8122 14.7558L89.6873 14.8249C88.6788 15.3896 87.6356 15.973 86.5154 15.973C85.0444 15.973 83.5336 14.8979 83.0685 13.5279C82.8054 12.5526 82.2619 10.5208 84.586 6.61805C85.673 4.67797 88.0476 2.36184 90.2308 1.12338C91.5703 0.405814 92.8087 0.0270996 93.8293 0.0270996H93.8598ZM87.1679 14.2973C88.0316 14.5392 89.2382 14.3784 90.567 13.8468C92.2094 13.019 94.8498 7.15888 94.6757 3.93915C94.5535 2.51864 94.0592 1.71072 93.121 1.39844L92.9722 1.35326C92.2678 1.10273 91.5052 1.06529 90.7796 1.24563C88.7412 2.51731 85.1122 8.07045 85.4643 12.3612C85.77 13.4402 86.3281 14.0781 87.1679 14.2973ZM79.3944 8.13328C81.5963 4.38468 82.3949 2.10974 81.9072 0.97758C81.7225 0.5497 81.3611 0.27862 80.8017 0.149724H80.7857H80.7684C79.7599 0.444723 78.0018 1.53701 76.0657 3.07313C74.1467 4.59008 72.3746 6.28427 70.773 8.13328C72.3105 5.271 72.9417 2.37683 72.3078 0.931071C72.1165 0.493889 71.8215 0.229454 71.4321 0.144409H71.4162H71.4003C70.3598 0.44738 68.6097 1.60611 66.5926 3.32561C64.6773 4.96133 62.9045 6.75682 61.2932 8.69272C62.3483 6.85097 63.5522 4.59596 63.4459 3.19671C63.3981 2.41935 62.9676 0.784901 62.145 0.333102C61.9896 0.248769 61.8143 0.207731 61.6376 0.214276C61.4609 0.220821 61.2892 0.274709 61.1404 0.370309C58.8814 1.64598 56.8125 3.59137 56.2331 4.15745L56.1853 4.20396L56.4922 4.51224L56.5387 4.46175C57.7493 3.15818 59.2322 2.24395 60.0242 2.03798C60.6488 2.22269 60.8999 2.80072 60.9252 3.24189C61.082 5.81848 56.8443 12.2646 55.3441 14.3203L55.3361 14.3375C55.1621 14.8212 55.1674 15.1853 55.3508 15.4192C55.667 15.8179 56.4271 15.7408 56.9294 15.685C57.0384 15.673 57.1354 15.6624 57.2151 15.6584H57.251L57.5792 15.1123C58.2369 14.0133 59.2309 12.3536 60.1039 11.0394C63.5735 5.98989 67.9799 2.41138 69.7512 1.83068C69.8841 2.03134 70.0169 2.31437 69.9837 2.83926C69.8668 5.60176 67.5044 9.41659 65.7796 12.2018L65.7793 12.2021C65.2797 13.0087 64.8492 13.7064 64.5223 14.2924V14.3057C64.3708 14.7973 64.3814 15.1455 64.5555 15.3687C64.8213 15.7169 65.4232 15.6929 66.0039 15.669C66.0774 15.669 66.1508 15.666 66.2232 15.6629C66.2936 15.66 66.363 15.6571 66.4305 15.6571H66.4703L66.4889 15.6225C67.0205 14.6525 68.1725 12.63 69.2064 11.0341C72.3424 6.10152 77.2843 2.4632 79.1048 1.85859C79.6668 2.43928 79.809 3.20734 77.2524 7.60973C77.0517 7.95256 76.8325 8.314 76.5986 8.6967L76.5751 8.73543C75.5869 10.3603 74.4731 12.1917 74.5522 13.2147C74.5881 13.8791 74.9761 15.075 75.7256 15.6478C75.8332 15.7355 76.1933 15.7979 76.5388 15.7979C76.7526 15.8102 76.9662 15.7715 77.162 15.685C79.0317 14.5581 80.6542 13.0685 81.8594 11.8978L81.9046 11.8553L81.6388 11.5417L81.5897 11.5882C80.504 12.6991 78.9573 13.7887 77.9779 14.1316C77.3202 13.923 77.1886 13.3276 77.17 12.9901C77.1169 12.0276 78.0255 10.4761 78.988 8.83257L78.9905 8.82826C79.122 8.60369 79.2589 8.36981 79.3944 8.13328ZM3.03503 4.16328C3.03503 5.37783 3.63433 6.09938 6.90987 6.68804C11.9953 7.61689 13.0384 9.2633 13.0384 11.4545C13.0501 12.0654 12.9188 12.6706 12.6551 13.2218C12.3914 13.7729 12.0025 14.2548 11.5196 14.6291C10.406 15.5101 8.78484 15.9579 6.70257 15.9579C2.90082 15.9579 0.526213 14.2916 0.0132882 11.2672L0 11.1888H2.28823L2.30285 11.2339C2.88354 13.2112 4.32531 14.1414 6.85007 14.1414C10.2146 14.1414 10.7156 12.5947 10.7156 11.6645C10.7156 9.83336 9.14628 9.20217 6.24679 8.67995C2.27494 7.96238 0.728194 6.75316 0.728194 4.37457C0.728194 1.85114 3.02706 0.159546 6.4501 0.159546C8.52838 0.159546 10.1243 0.645895 11.194 1.61195C11.9633 2.30942 12.4499 3.26505 12.5613 4.29749L12.5693 4.37191H10.2997L10.2864 4.32274C9.71368 2.25775 7.99818 1.9787 6.39163 1.9787C4.25887 1.9787 3.03503 2.77467 3.03503 4.16328ZM15.858 0.449414H18.109V15.6684H15.858V0.449414ZM28.7928 2.0292C31.1595 2.0292 32.7155 2.95937 33.4198 4.78119L33.4371 4.82371H35.7346L35.716 4.74265C35.3971 3.362 34.0842 0.159546 28.8128 0.159546C24.0808 0.159546 20.9023 3.36333 20.9023 8.13247C20.9023 12.9016 23.8603 15.9725 28.4407 15.9725C30.9947 15.9725 32.6318 15.2523 33.7121 13.6404C33.7272 14.3017 33.7849 14.9613 33.8849 15.6151L33.8968 15.6682H35.6376V7.29664H28.7025V9.21546H33.457V9.53837C33.457 12.4618 31.7814 14.0776 28.741 14.0776C25.3711 14.0776 23.2769 11.7522 23.2769 8.01022C23.2769 6.29338 23.7566 4.82105 24.6615 3.76597C25.6276 2.62982 27.0587 2.0292 28.7928 2.0292ZM50.4223 12.8061C50.32 11.1172 50.32 9.14389 50.32 7.0603V0.449414H52.4448V15.6684H49.9027L49.8828 15.6405C47.8975 12.8606 42.3085 4.9209 41.0302 2.87053C41.1312 4.73353 41.1312 6.93672 41.1312 9.4761V15.6684H39.0051V0.449414H41.6919L41.7105 0.477319C42.8367 2.08351 44.161 3.92031 45.4505 5.70883L45.5761 5.88296C47.7195 8.85155 49.7486 11.666 50.4223 12.8061ZM112.232 2.81768H112.249C112.817 2.6848 114.14 1.22309 114.205 0.522805V0.50686L114.199 0.492243C114.074 0.195916 111.762 0.20256 110.984 0.271658C109.151 0.602535 107.257 2.58514 104.844 5.69591C105.301 4.61292 105.492 3.81297 105.444 3.20171C105.399 2.42568 104.97 0.785912 104.146 0.332784C103.991 0.248451 103.816 0.207413 103.639 0.213958C103.462 0.220503 103.29 0.274391 103.142 0.369991C100.891 1.63902 98.8136 3.58972 98.2316 4.15713L98.1824 4.20364L98.4907 4.51193L98.5372 4.46143C99.7478 3.15653 101.232 2.24363 102.024 2.03766C102.646 2.22237 102.898 2.8004 102.926 3.24157C103.08 5.81417 98.8442 12.2629 97.3453 14.32L97.336 14.3372C97.1632 14.8209 97.1685 15.185 97.3519 15.4189C97.5353 15.6528 97.9153 15.7312 98.2821 15.7312C98.4933 15.7312 98.7057 15.7102 98.8878 15.6923L98.9253 15.6886C99.0342 15.6767 99.1325 15.666 99.2123 15.6621H99.2468L99.2654 15.6328C100.444 13.7512 101.467 12.0357 102.37 10.5222L102.378 10.5088L102.378 10.5087C105.15 5.85792 106.826 3.047 108.798 2.4589C109.587 2.4553 110.373 2.53098 111.146 2.6848C111.505 2.75212 111.868 2.7965 112.232 2.81768ZM121.224 0.117163C122.783 0.117163 123.846 0.683241 123.979 1.59481C124.287 3.59336 121.232 6.14735 112.696 11.0082C112.666 11.4537 112.666 11.9008 112.696 12.3463C113.004 13.4346 113.561 14.0698 114.4 14.289C115.38 14.5615 116.946 14.1681 117.987 13.6871C118.775 13.3243 120.717 11.8586 121.682 10.6547L121.716 10.6109L122.115 10.8261L122.063 10.8886C120.932 12.2427 119.129 13.6844 117.359 14.6518C116.203 15.2963 114.831 15.9607 113.43 15.9607C112.19 15.9607 110.763 14.8471 110.313 13.5276C110.05 12.5523 109.507 10.5205 111.831 6.61776C113.083 4.38534 115.617 2.25125 117.447 1.21344C118.761 0.506508 120.103 0.117163 121.224 0.117163ZM121.465 4.1209C121.728 3.41663 121.55 2.68312 120.979 2.08781H120.98C120.23 1.30912 119.041 0.987541 118.082 1.30247C116.253 2.53828 113.303 6.72008 112.756 10.5444C118.541 7.12138 120.959 5.5733 121.465 4.1209Z" fill="black"/>
</svg>
